<?xml version="1.0" encoding="UTF-8" standalone="no"?>
<svg
   xmlns:dc="http://purl.org/dc/elements/1.1/"
   xmlns:cc="http://creativecommons.org/ns#"
   xmlns:rdf="http://www.w3.org/1999/02/22-rdf-syntax-ns#"
   xmlns:svg="http://www.w3.org/2000/svg"
   xmlns="http://www.w3.org/2000/svg"
   xmlns:sodipodi="http://sodipodi.sourceforge.net/DTD/sodipodi-0.dtd"
   xmlns:inkscape="http://www.inkscape.org/namespaces/inkscape"
   width="1440"
   height="219.209"
   viewBox="0 0 1440 219.209"
   version="1.1"
   id="svg827"
   sodipodi:docname="VazanPolukrug.svg"
   inkscape:version="0.92.4 (5da689c313, 2019-01-14)">
  <metadata
     id="metadata833">
    <rdf:RDF>
      <cc:Work
         rdf:about="">
        <dc:format>image/svg+xml</dc:format>
        <dc:type
           rdf:resource="http://purl.org/dc/dcmitype/StillImage" />
      </cc:Work>
    </rdf:RDF>
  </metadata>
  <defs
     id="defs831" />
  <sodipodi:namedview
     pagecolor="#ffffff"
     bordercolor="#666666"
     borderopacity="1"
     objecttolerance="10"
     gridtolerance="10"
     guidetolerance="10"
     inkscape:pageopacity="0"
     inkscape:pageshadow="2"
     inkscape:window-width="1920"
     inkscape:window-height="1017"
     id="namedview829"
     showgrid="false"
     inkscape:zoom="0.70710678"
     inkscape:cx="906.65297"
     inkscape:cy="161.83137"
     inkscape:window-x="1352"
     inkscape:window-y="-8"
     inkscape:window-maximized="1"
     inkscape:current-layer="svg827" />
  <path
     d="M1804,996H364V776.792c23.857,8.7,48.946,17.064,74.573,24.864,25.709,7.825,52.57,15.267,79.837,22.119,27.414,6.889,55.9,13.348,84.673,19.2,28.98,5.892,58.951,11.31,89.081,16.1,30.406,4.835,61.716,9.152,93.061,12.829,31.686,3.717,64.191,6.874,96.612,9.381,32.822,2.539,66.377,4.476,99.735,5.757,33.813,1.3,68.275,1.958,102.429,1.958s68.615-.659,102.429-1.958c33.358-1.282,66.913-3.219,99.734-5.757,32.42-2.508,64.925-5.664,96.612-9.381,31.345-3.677,62.655-7.994,93.061-12.829,30.129-4.791,60.1-10.209,89.081-16.1,28.766-5.849,57.254-12.308,84.673-19.2,27.268-6.852,54.129-14.294,79.837-22.119,25.616-7.8,50.706-16.162,74.573-24.864V996Z"
     id="path825"
     fill="#fff"
     transform="translate(-364 -776.792)"
     style="fill:#faf9f6;fill-opacity:1" />
</svg>
