<?xml version="1.0" encoding="UTF-8" standalone="no"?>
<svg
   xmlns:dc="http://purl.org/dc/elements/1.1/"
   xmlns:cc="http://creativecommons.org/ns#"
   xmlns:rdf="http://www.w3.org/1999/02/22-rdf-syntax-ns#"
   xmlns:svg="http://www.w3.org/2000/svg"
   xmlns="http://www.w3.org/2000/svg"
   xmlns:sodipodi="http://sodipodi.sourceforge.net/DTD/sodipodi-0.dtd"
   xmlns:inkscape="http://www.inkscape.org/namespaces/inkscape"
   width="1496.5695"
   height="209.83183"
   viewBox="0 0 1496.5695 209.83183"
   version="1.1"
   id="svg827"
   sodipodi:docname="VazanPolukrug2.svg"
   inkscape:version="0.92.4 (5da689c313, 2019-01-14)">
  <metadata
     id="metadata833">
    <rdf:RDF>
      <cc:Work
         rdf:about="">
        <dc:format>image/svg+xml</dc:format>
        <dc:type
           rdf:resource="http://purl.org/dc/dcmitype/StillImage" />
        <dc:title></dc:title>
      </cc:Work>
    </rdf:RDF>
  </metadata>
  <defs
     id="defs831" />
  <sodipodi:namedview
     pagecolor="#ffffff"
     bordercolor="#666666"
     borderopacity="1"
     objecttolerance="10"
     gridtolerance="10"
     guidetolerance="10"
     inkscape:pageopacity="0"
     inkscape:pageshadow="2"
     inkscape:window-width="1920"
     inkscape:window-height="1017"
     id="namedview829"
     showgrid="false"
     inkscape:zoom="0.70710678"
     inkscape:cx="865.64078"
     inkscape:cy="174.11285"
     inkscape:window-x="1352"
     inkscape:window-y="-8"
     inkscape:window-maximized="1"
     inkscape:current-layer="svg827" />
  <path
     d="M 1496.5685,209.83183 H 0 V 0 C 24.794191,8.3278756 50.868779,16.334124 77.502502,23.800495 104.22145,31.290796 132.13765,38.41448 160.4758,44.9734 c 28.49093,6.594337 58.09596,12.777066 87.99927,18.378759 30.11844,5.639983 61.26681,10.826238 92.58042,15.411356 31.60047,4.628194 64.14044,8.760539 96.71679,12.280273 32.93074,3.558011 66.71266,6.579981 100.40728,8.979732 34.11137,2.43041 68.98453,4.28457 103.65295,5.51076 35.1413,1.2444 70.95709,1.87427 106.45278,1.87427 35.4957,0 71.31046,-0.63083 106.4528,-1.87427 34.66843,-1.22716 69.54159,-3.08131 103.65192,-5.51076 33.69357,-2.400712 67.47549,-5.421721 100.40729,-8.979732 32.5763,-3.519734 65.1163,-7.652079 96.7168,-12.280273 31.3125,-4.586073 62.4609,-9.77233 92.5804,-15.411356 29.8959,-5.59882 59.5031,-11.78155 87.9992,-18.378759 28.3392,-6.55892 56.2554,-13.682604 82.9734,-21.172905 C 1445.6893,16.334124 1471.7649,8.3297905 1496.5695,0 v 209.83183 z"
     id="path825"
     style="fill:#faf9f6;fill-opacity:1;stroke-width:0.99741191"
     inkscape:connector-curvature="0" />
</svg>
