<?xml version="1.0" encoding="UTF-8" standalone="no"?>
<!-- Created with Inkscape (http://www.inkscape.org/) -->

<svg
   xmlns:dc="http://purl.org/dc/elements/1.1/"
   xmlns:cc="http://creativecommons.org/ns#"
   xmlns:rdf="http://www.w3.org/1999/02/22-rdf-syntax-ns#"
   xmlns:svg="http://www.w3.org/2000/svg"
   xmlns="http://www.w3.org/2000/svg"
   xmlns:sodipodi="http://sodipodi.sourceforge.net/DTD/sodipodi-0.dtd"
   xmlns:inkscape="http://www.inkscape.org/namespaces/inkscape"
   width="395.96735mm"
   height="55.518009mm"
   viewBox="0 0 395.96735 55.518009"
   version="1.1"
   id="svg8"
   inkscape:version="0.92.4 (5da689c313, 2019-01-14)"
   sodipodi:docname="VazanPolukrug3.svg">
  <defs
     id="defs2" />
  <sodipodi:namedview
     id="base"
     pagecolor="#ffffff"
     bordercolor="#666666"
     borderopacity="1.0"
     inkscape:pageopacity="0.0"
     inkscape:pageshadow="2"
     inkscape:zoom="0.35"
     inkscape:cx="421.14188"
     inkscape:cy="173.48737"
     inkscape:document-units="mm"
     inkscape:current-layer="layer1"
     showgrid="false"
     inkscape:window-width="1920"
     inkscape:window-height="1017"
     inkscape:window-x="1352"
     inkscape:window-y="-8"
     inkscape:window-maximized="1" />
  <metadata
     id="metadata5">
    <rdf:RDF>
      <cc:Work
         rdf:about="">
        <dc:format>image/svg+xml</dc:format>
        <dc:type
           rdf:resource="http://purl.org/dc/dcmitype/StillImage" />
        <dc:title></dc:title>
      </cc:Work>
    </rdf:RDF>
  </metadata>
  <g
     inkscape:label="Layer 1"
     inkscape:groupmode="layer"
     id="layer1"
     transform="translate(128.43605,-139.21719)">
    <path
       inkscape:connector-curvature="0"
       style="fill:#faf9f6;fill-opacity:1;stroke-width:0.26389858"
       id="path825"
       d="M -128.43578,139.21719 H 267.5313 v 55.51801 c -6.56013,-2.20342 -13.45903,-4.32174 -20.50587,-6.29722 -7.06939,-1.9818 -14.45555,-3.86661 -21.95335,-5.60199 -7.53822,-1.74476 -15.37122,-3.3806 -23.28314,-4.86272 -7.96883,-1.49224 -16.21017,-2.86444 -24.49523,-4.07758 -8.36096,-1.22455 -16.97049,-2.3179 -25.58965,-3.24916 -8.71292,-0.94139 -17.65106,-1.74095 -26.56609,-2.37589 -9.0253,-0.64304 -18.25216,-1.13362 -27.424844,-1.45805 -9.29781,-0.32925 -18.77407,-0.4959 -28.16564,-0.4959 -9.39157,0 -18.86756,0.1669 -28.16563,0.4959 -9.172686,0.32468 -18.399546,0.81526 -27.424566,1.45805 -8.91476,0.63519 -17.8529,1.4345 -26.56611,2.37589 -8.61914,0.93126 -17.22869,2.02461 -25.58965,3.24916 -8.28477,1.21339 -16.52612,2.58559 -24.49523,4.07758 -7.90996,1.48136 -15.74353,3.1172 -23.28312,4.86272 -7.49808,1.73538 -14.88425,3.62019 -21.95338,5.60199 -7.04379,1.97548 -13.94296,4.09329 -20.50585,6.29722 v -55.51801 z" />
  </g>
</svg>
